<svg width="656" height="375" viewBox="0 0 656 375" fill="none" xmlns="http://www.w3.org/2000/svg">
<g clip-path="url(#clip0_573_6705)">
<path d="M267.777 101.743C267.664 101.642 267.563 101.478 267.462 101.263C265.319 98.0598 265.143 94.8437 266.907 91.6401C268.672 88.4366 271.42 86.8223 275.163 86.8223C277.52 86.8223 279.789 87.2763 281.982 88.1844C284.175 89.0925 285.965 90.4546 287.352 92.2708C288.095 93.4437 289.066 94.4653 290.238 95.3229C293.225 97.5679 296.969 98.6904 301.468 98.6904C305.968 98.6904 309.27 97.8327 311.728 96.1175C314.186 94.4022 315.409 92.2077 315.409 89.5339C315.409 86.6457 313.909 84.4511 310.921 82.9503C307.922 81.5629 303.17 80.0116 296.653 78.2964C289.809 76.6946 284.251 75.0298 279.978 73.3271C275.705 71.6119 272.012 68.9885 268.912 65.4697C266.025 62.2662 264.475 57.978 264.261 52.6304C264.046 48.7837 264.74 45.0883 266.34 41.5569C269.113 35.6796 273.978 31.177 280.936 28.0744C286.394 25.7159 292.746 24.543 300.019 24.543C310.808 24.543 319.417 27.1663 325.832 32.4004C327.647 34.0022 329.248 35.7174 330.647 37.5336C333.004 41.1659 333.218 44.8109 331.29 48.4432C329.361 52.0755 326.261 53.9043 321.988 53.9043C318.144 53.9043 315.043 52.0377 312.686 48.2918C312.043 47.2198 311.186 46.2613 310.115 45.4036C307.443 43.3731 303.863 42.3515 299.376 42.3515C295.204 42.3515 292.003 43.0956 289.759 44.5964C287.515 46.0973 286.394 48.1783 286.394 50.8521C286.394 53.8538 287.944 56.0988 291.045 57.5871C294.032 59.1888 298.746 60.7906 305.161 62.4049C311.791 64.0067 317.186 65.6715 321.358 67.3742C325.631 69.0894 329.324 71.7632 332.424 75.3956C335.525 78.927 337.126 83.6314 337.239 89.5213C337.239 94.6545 335.79 99.2579 332.903 103.319C330.017 107.38 325.895 110.546 320.551 112.791C315.093 115.149 308.791 116.322 301.632 116.322C294.473 116.322 287.629 115.036 281.743 112.476C275.856 109.802 271.206 106.22 267.79 101.73L267.777 101.743Z" fill="white"/>
<path d="M425.885 45.4173C429.629 52.1522 431.494 59.8583 431.494 68.5229C431.381 70.9823 430.536 73.0381 428.923 74.7029C427.322 76.3678 425.343 77.1876 422.986 77.1876H365.902C366.431 83.6072 368.675 88.6395 372.632 92.2718C375.519 94.8447 378.884 96.4969 382.728 97.241C388.287 98.0987 393.631 97.5059 398.761 95.4753C403.362 93.5456 407.206 90.7205 410.306 86.9747C414.365 82.9135 418.751 82.4847 423.453 85.6882C427.625 89.6485 428.104 94.0375 424.89 98.8428C422.86 101.416 420.566 103.711 417.995 105.742C415.21 107.987 412.222 109.866 409.021 111.354C405.819 112.956 402.504 114.192 399.076 115.05C395.232 116.008 391.375 116.437 387.531 116.336C383.472 116.222 379.401 115.743 375.342 114.886C371.599 113.927 368.019 112.477 364.603 110.547C357.873 106.801 352.579 101.454 348.722 94.5042C344.979 87.5548 343.113 79.5334 343.113 70.44C343.113 61.3466 344.979 53.1612 348.722 46.2119C352.466 39.2625 357.696 33.9149 364.44 30.1691C371.17 26.4233 378.922 24.5566 387.694 24.5566C396.467 24.5566 403.727 26.3728 410.47 30.0177C417.1 33.6501 422.23 38.7959 425.86 45.4173H425.885ZM386.913 43.021C381.569 43.021 376.968 44.6858 373.124 47.9902C369.28 51.3072 366.872 56.0116 365.902 62.1159H408.076C407.76 56.2386 405.592 51.5847 401.584 48.1542C397.576 44.7362 392.686 43.021 386.913 43.021Z" fill="white"/>
<path d="M486.185 95.9667C488.756 95.9667 490.962 96.8748 492.84 98.691C494.705 100.507 495.65 102.752 495.65 105.426C495.65 108.1 494.718 110.219 492.84 112.085C490.974 113.952 488.756 114.898 486.185 114.898H477.046C468.488 114.898 461.631 112.842 456.439 108.718C451.258 104.606 448.662 97.455 448.662 87.3021V44.4583H441.931C439.473 44.4583 437.33 43.5502 435.515 41.7341C433.7 39.9179 432.793 37.7738 432.793 35.3144C432.793 32.855 433.7 30.5596 435.515 28.7308C437.33 26.9147 439.473 26.0066 441.931 26.0066H448.662V15.4123C448.662 12.3097 449.758 9.63589 451.951 7.39091C454.145 5.14593 456.791 4.02344 459.892 4.02344C462.993 4.02344 465.803 5.14593 467.984 7.39091C470.177 9.63589 471.274 12.3097 471.274 15.4123V26.0066H484.748C487.319 26.0066 489.499 26.9147 491.327 28.7308C493.142 30.547 494.05 32.7415 494.05 35.3144C494.05 37.8873 493.142 39.9179 491.327 41.7341C489.512 43.5502 487.319 44.4583 484.748 44.4583H471.274V87.4661C471.274 93.0281 474.047 95.8658 479.618 95.9667H486.197H486.185Z" fill="white"/>
<path d="M316.681 218.947C319.252 218.947 321.458 219.855 323.336 221.671C325.201 223.488 326.146 225.733 326.146 228.406C326.146 231.08 325.214 233.199 323.336 235.066C321.47 236.932 319.252 237.878 316.681 237.878H307.543C298.984 237.878 292.128 235.822 286.935 231.698C281.754 227.587 279.158 220.435 279.158 210.283V167.439H272.427C269.969 167.439 267.827 166.531 266.012 164.715C264.197 162.898 263.289 160.754 263.289 158.295C263.289 155.836 264.197 153.54 266.012 151.711C267.827 149.895 269.969 148.987 272.427 148.987H279.158V138.393C279.158 135.29 280.254 132.616 282.447 130.371C284.641 128.126 287.288 127.004 290.388 127.004C293.489 127.004 296.3 128.126 298.48 130.371C300.673 132.616 301.77 135.29 301.77 138.393V148.987H315.244C317.815 148.987 319.996 149.895 321.823 151.711C323.638 153.527 324.546 155.722 324.546 158.295C324.546 160.868 323.638 162.898 321.823 164.715C320.008 166.531 317.815 167.439 315.244 167.439H301.77V210.447C301.77 216.009 304.543 218.846 310.114 218.947H316.693H316.681Z" fill="white"/>
<path d="M414.655 165.031C417.541 170.807 418.978 177.706 418.978 185.727V228.407C418.978 231.51 417.881 234.158 415.688 236.353C413.495 238.548 410.848 239.645 407.747 239.645C404.647 239.645 402 238.548 399.807 236.353C397.614 234.158 396.517 231.51 396.517 228.407V188.78C396.517 181.717 394.752 176.268 391.223 172.409C387.694 168.562 382.879 166.632 376.791 166.632C370.704 166.632 365.675 168.562 362.032 172.409C358.503 176.256 356.738 181.717 356.738 188.78V228.407C356.738 231.51 355.642 234.158 353.448 236.353C351.255 238.548 348.608 239.645 345.508 239.645C342.407 239.645 339.76 238.548 337.567 236.353C335.374 234.158 334.277 231.51 334.277 228.407V128.443C334.277 125.34 335.374 122.691 337.567 120.497C339.76 118.302 342.407 117.205 345.508 117.205C348.608 117.205 351.255 118.302 353.448 120.497C355.642 122.691 356.738 125.34 356.738 128.443V159.898C359.624 156.051 363.469 152.999 368.284 150.754C373.098 148.61 378.443 147.55 384.316 147.55C391.047 147.55 397.034 149.001 402.277 151.889C407.521 154.89 411.63 159.267 414.629 165.043L414.655 165.031Z" fill="white"/>
<path d="M509.272 168.398C513.015 175.133 514.881 182.839 514.881 191.503C514.767 193.963 513.923 196.019 512.31 197.683C510.709 199.348 508.73 200.168 506.373 200.168H449.288C449.818 206.588 452.061 211.62 456.019 215.252C458.905 217.825 462.271 219.477 466.115 220.221C471.674 221.079 477.018 220.486 482.148 218.456C486.748 216.526 490.593 213.701 493.693 209.955C497.752 205.894 502.138 205.465 506.839 208.669C511.011 212.629 511.49 217.018 508.276 221.823C506.247 224.396 503.953 226.692 501.382 228.722C498.596 230.967 495.609 232.846 492.408 234.335C489.206 235.936 485.891 237.172 482.463 238.03C478.618 238.989 474.762 239.417 470.917 239.316C466.859 239.203 462.788 238.724 458.729 237.866C454.986 236.908 451.406 235.457 447.99 233.527C441.26 229.782 435.966 224.434 432.109 217.485C428.365 210.535 426.5 202.514 426.5 193.42C426.5 184.327 428.365 176.142 432.109 169.192C435.852 162.243 441.083 156.895 447.826 153.15C454.557 149.404 462.309 147.537 471.081 147.537C479.854 147.537 487.114 149.353 493.857 152.998C500.487 156.631 505.617 161.776 509.247 168.398H509.272ZM470.3 165.989C464.956 165.989 460.355 167.654 456.511 170.958C452.666 174.275 450.259 178.979 449.288 185.084H491.462C491.147 179.206 488.979 174.553 484.971 171.122C480.963 167.704 476.072 165.989 470.3 165.989Z" fill="white"/>
<path d="M316.681 341.932C319.252 341.932 321.458 342.84 323.336 344.656C325.201 346.472 326.146 348.717 326.146 351.391C326.146 354.065 325.214 356.183 323.336 358.05C321.47 359.917 319.252 360.863 316.681 360.863H307.543C298.984 360.863 292.128 358.807 286.935 354.683C281.754 350.571 279.158 343.42 279.158 333.267V290.423H272.427C269.969 290.423 267.827 289.515 266.012 287.699C264.197 285.883 263.289 283.739 263.289 281.279C263.289 278.82 264.197 276.524 266.012 274.696C267.827 272.88 269.969 271.971 272.427 271.971H279.158V261.377C279.158 258.275 280.254 255.601 282.447 253.356C284.641 251.111 287.288 249.988 290.388 249.988C293.489 249.988 296.3 251.111 298.48 253.356C300.673 255.601 301.77 258.275 301.77 261.377V271.971H315.244C317.815 271.971 319.996 272.88 321.823 274.696C323.638 276.512 324.546 278.706 324.546 281.279C324.546 283.852 323.638 285.883 321.823 287.699C320.008 289.515 317.815 290.423 315.244 290.423H301.77V333.431C301.77 338.993 304.543 341.831 310.114 341.932H316.693H316.681Z" fill="white"/>
<path d="M348.596 276.146C354.684 272.4 361.528 270.533 369.129 270.533C375.758 270.533 381.582 271.87 386.611 274.544C391.526 277.218 395.484 280.585 398.471 284.659V281.771C398.471 278.668 399.568 276.02 401.761 273.825C403.954 271.63 406.651 270.533 409.865 270.533C413.08 270.533 415.613 271.63 417.806 273.825C419.999 276.02 421.096 278.668 421.096 281.771V351.088C421.096 354.19 419.999 356.839 417.806 359.033C415.613 361.228 412.966 362.325 409.865 362.325C406.765 362.325 403.954 361.228 401.761 359.033C399.568 356.839 398.471 354.19 398.471 351.088V347.884C395.585 352.059 391.627 355.477 386.611 358.151C381.481 360.925 375.595 362.325 368.965 362.325C361.478 362.325 354.697 360.396 348.596 356.549C342.395 352.702 337.479 347.241 333.837 340.178C330.308 333.229 328.543 325.207 328.543 316.114C328.543 307.02 330.308 299.163 333.837 292.201C337.467 285.252 342.395 279.904 348.596 276.158V276.146ZM386.598 293.311C382.955 291.28 379.061 290.259 374.889 290.259C370.717 290.259 366.872 291.28 363.343 293.311C359.814 295.341 356.978 298.28 354.848 302.139C352.604 306.1 351.483 310.754 351.483 316.101C351.483 321.449 352.604 326.103 354.848 330.063C356.978 334.124 359.864 337.227 363.507 339.371C367.036 341.515 370.83 342.574 374.889 342.574C378.947 342.574 382.955 341.502 386.598 339.371C390.228 337.34 393.114 334.339 395.257 330.391C397.387 326.544 398.459 321.89 398.459 316.429C398.459 310.968 397.387 306.264 395.257 302.303C393.114 298.457 390.228 295.455 386.598 293.324V293.311Z" fill="white"/>
<path d="M487.457 270.52C495.158 270.52 502.103 272.399 508.304 276.133C514.506 279.879 519.421 285.226 523.064 292.176C526.694 299.024 528.522 306.995 528.522 316.088C528.522 325.182 526.707 333.254 523.064 340.316C519.434 347.266 514.506 352.676 508.304 356.523C502.103 360.37 495.158 362.3 487.457 362.3C480.726 362.3 474.84 361.013 469.811 358.453C464.782 355.779 460.774 352.361 457.787 348.187V351.075C457.787 354.177 456.665 356.826 454.421 359.02C452.178 361.215 449.506 362.312 446.405 362.312C443.304 362.312 440.494 361.215 438.313 359.02C436.12 356.826 435.023 354.177 435.023 351.075V251.917C435.023 248.815 436.12 246.166 438.313 243.971C440.506 241.777 443.204 240.68 446.405 240.68C449.607 240.68 452.178 241.777 454.421 243.971C456.665 246.166 457.787 248.815 457.787 251.917V284.974C460.673 280.698 464.681 277.217 469.811 274.544C474.941 271.87 480.827 270.533 487.457 270.533V270.52ZM493.23 293.311C489.587 291.28 485.642 290.258 481.369 290.258C477.096 290.258 473.454 291.33 469.824 293.462C466.181 295.493 463.244 298.494 461.001 302.442C458.858 306.402 457.799 311.056 457.799 316.404C457.799 321.751 458.871 326.405 461.001 330.365C463.244 334.326 466.181 337.378 469.824 339.509C473.454 341.54 477.311 342.561 481.369 342.561C485.642 342.561 489.6 341.489 493.23 339.358C496.86 337.214 499.746 334.174 501.889 330.214C504.132 326.254 505.254 321.549 505.254 316.088C505.254 310.627 504.132 306.137 501.889 302.291C499.746 298.33 496.86 295.341 493.23 293.311Z" fill="white"/>
<path d="M559.301 351.074C559.301 354.176 558.204 356.825 556.011 359.019C553.818 361.214 551.171 362.311 548.07 362.311C544.97 362.311 542.323 361.214 540.13 359.019C537.936 356.825 536.84 354.176 536.84 351.074V252.068C536.84 248.965 537.936 246.316 540.13 244.122C542.323 241.927 544.97 240.83 548.07 240.83C551.171 240.83 553.818 241.927 556.011 244.122C558.204 246.316 559.301 248.965 559.301 252.068V351.074Z" fill="white"/>
<path d="M650.377 291.38C654.121 298.115 655.986 305.821 655.986 314.486C655.873 316.945 655.028 319.001 653.415 320.666C651.814 322.331 649.836 323.15 647.479 323.15H590.394C590.923 329.57 593.167 334.602 597.125 338.235C600.011 340.808 603.376 342.46 607.221 343.204C612.779 344.062 618.123 343.469 623.253 341.438C627.854 339.509 631.698 336.683 634.799 332.938C638.857 328.876 643.244 328.448 647.945 331.651C652.117 335.611 652.596 340 649.382 344.806C647.353 347.379 645.058 349.674 642.487 351.705C639.702 353.95 636.714 355.829 633.513 357.317C630.312 358.919 626.997 360.155 623.568 361.012C619.724 361.971 615.867 362.4 612.023 362.299C607.964 362.185 603.893 361.706 599.835 360.848C596.091 359.89 592.511 358.44 589.096 356.51C582.365 352.764 577.071 347.416 573.214 340.467C569.471 333.518 567.605 325.496 567.605 316.403C567.605 307.309 569.471 299.124 573.214 292.175C576.958 285.225 582.189 279.878 588.932 276.132C595.663 272.386 603.414 270.52 612.187 270.52C620.959 270.52 628.219 272.336 634.963 275.981C641.592 279.613 646.722 284.759 650.352 291.38H650.377ZM611.418 288.971C606.074 288.971 601.473 290.636 597.629 293.94C593.784 297.257 591.377 301.962 590.407 308.066H632.58C632.265 302.189 630.097 297.535 626.089 294.104C622.081 290.687 617.191 288.971 611.418 288.971Z" fill="white"/>
<path d="M145.78 366.146C145.969 358.087 157.376 272.424 157.376 272.424C157.376 272.424 156.796 260.909 151.099 255.524C143.02 247.894 135.898 238.813 135.898 212.062C135.898 185.312 143.02 86.2172 160.855 94.062C181.69 103.231 167.863 272.412 167.863 272.412C167.863 272.412 167.573 361.719 167.775 369.778C167.775 369.778 202.171 373.247 226.359 368.278" stroke="white" stroke-width="6.38" stroke-linecap="round" stroke-linejoin="round"/>
<path d="M145.779 366.197C64.5577 347.341 4.01953 274.493 4.01953 187.481C4.01953 86.1544 86.1109 4.02344 187.361 4.02344C192.352 4.02344 197.293 4.22523 202.171 4.61621" stroke="white" stroke-width="6.38" stroke-miterlimit="10"/>
<path d="M224.315 6.97656C224.315 6.97656 217.546 184.38 217.256 188.908C216.966 193.449 219.122 199.326 223.432 204.901C227.693 210.4 235.306 220.351 235.482 229.141C235.482 229.356 235.482 229.558 235.482 229.759L230.982 313.694" stroke="white" stroke-width="6.38" stroke-linecap="round" stroke-linejoin="round"/>
<path d="M195.314 313.693L190.814 229.758C190.814 229.557 190.802 229.342 190.814 229.14C190.991 220.35 198.591 210.399 202.864 204.9C207.174 199.325 209.33 193.448 209.04 188.907C208.75 184.367 202.196 4.61719 202.196 4.61719" stroke="white" stroke-width="6.38" stroke-linecap="round" stroke-linejoin="round"/>
<path d="M206.871 227.438V312.936" stroke="white" stroke-width="6.38" stroke-linecap="round" stroke-linejoin="round"/>
<path d="M219.414 227.438V312.936" stroke="white" stroke-width="6.38" stroke-linecap="round" stroke-linejoin="round"/>
<path d="M183.415 58.1309C112.882 59.8587 56.2383 117.61 56.2383 188.592C56.2383 202.112 58.2928 215.153 62.1119 227.412C73.2414 263.181 97.618 285.088 111.672 295.367C119.524 301.106 126.633 304.99 131.561 307.425" stroke="white" stroke-width="6.38" stroke-linecap="round" stroke-linejoin="round"/>
</g>
<defs>
<clipPath id="clip0_573_6705">
<rect width="656" height="375" fill="white"/>
</clipPath>
</defs>
</svg>
